<svg xmlns="http://www.w3.org/2000/svg" viewBox="0 0 83 118"><defs><style>.a{fill:#ed6c00;}.b{fill:#fff;}</style></defs><path class="a" d="M40.74,96.44v-17a2.28,2.28,0,0,0-2.26-2.12l.05,0A99.78,99.78,0,0,1,21,75.45a1.21,1.21,0,0,0-1.32.38c-.29.48-.15.84,0,1.41s.87,3,.87,3c.47,2,3.17,2.51,4.89,2.87l7.69,1.67c3.72.8,4.73,3.68,4.73,7.49v3.37c0,3-.49,4.88-2.46,5-2.49.12-4.31-2.37-5.28-4.53,0,0-.05-.1-.07-.14l0-.07c-.09-.2-.16-.39-.23-.57-.65-1.62-2.12-5.2-2.12-5.2a2,2,0,0,0-.51-.85,1.52,1.52,0,0,0-1-.29h-2.6l3.35,11.62c.69,2.39,1.53,5.14,3.41,6.89,2.32,2.18,6.08,3.35,11.09,3.35s8.78-1.17,11.09-3.35c1.88-1.75,2.72-4.5,3.41-6.89L59.27,89h-2.6a1.53,1.53,0,0,0-1,.29,2,2,0,0,0-.5.85s-1.46,3.58-2.13,5.2c-.06.18-.14.37-.23.57l0,.07-.06.14c-1,2.16-2.8,4.65-5.3,4.53-2-.09-2.45-2-2.46-5V92.26c0-3.81,1-6.69,4.73-7.49L57.4,83.1c1.73-.36,4.43-.85,4.89-2.87l.88-3c.15-.57.28-.93,0-1.41a1.21,1.21,0,0,0-1.32-.38,100,100,0,0,1-17.54,1.83l0,0a2.3,2.3,0,0,0-2.27,2.12v17a.68.68,0,0,1-.67.69.69.69,0,0,1-.68-.69"/><path class="a" d="M41.81,9.28s-5.23,2.92-7.1,6.86c-.79,1.66-.34,2.73,2.69.87a63.44,63.44,0,0,1,12.79-6.28c5.07-1.81,14.39-4,15.06-3.67.28.14.29.66-.24,1.15C51.82,20.33,50.39,29.36,54,30.79c1.78.7,4.78.29,7.45-.58s5.28-2,8.27-2.1c7-.21,10,13.14,2.39,25.79C67.84,61,56.48,70,55.67,69.68q-.56-.23-.33-1.2c.11-.44,4.18-9.4.95-10.82-.5-.23-1.76.13-3,3C51.8,64.31,50.61,65,50,64.84s-.41-1.17-.31-1.86.24-1.26-.14-1-4,4.33-5.15,4.24c-.4,0-.66-.47-.4-1.08s.53-1.43.53-1.43-6.25,6.08-13.88,7.53c-.57.11-2.1.48-2.58.22a.68.68,0,0,1,.05-1.1c.49-.33,8.58-4.52,12.08-10.41,1.06-1.79,1.09-2.7.8-3.17-.7-1.22-4.14,0-6.41.94s-5.66,2.94-10,3.67c-5.34.91-11.72-.71-15-4.81-3.8-4.74-4-9.39-3.5-14.12,1.7-14.79,15.84-24.18,20.75-27.2C32.77,11.6,41.56,7.8,42.23,8.07c.35.14.5.67-.42,1.21"/><path class="b" d="M23.41,42.39c-.09-1.75-.18-3.87-.16-5.69h-.06c-.41,1.68-.94,3.53-1.47,5.19l-1.89,6H18L16.24,42c-.49-1.7-1-3.58-1.3-5.3h0c-.05,1.78-.14,3.93-.24,5.78l-.29,5.6H12.09L13,33.92h3.09l1.7,5.7c.49,1.72.91,3.34,1.23,4.93h.06c.34-1.56.77-3.22,1.28-4.94l1.77-5.69h3.08l.82,14.16H23.68Z"/><path class="b" d="M31.16,35.05a1.33,1.33,0,0,1-1.41,1.36,1.31,1.31,0,0,1-1.34-1.36,1.38,1.38,0,0,1,2.75,0Zm-2.61,13V37.85H31V48.08Z"/><path class="b" d="M33.61,41c0-1.24,0-2.27-.09-3.17h2.16l.1,1.83h.07a2.86,2.86,0,0,1,2.58-2,2.47,2.47,0,0,1,.57,0v2.38a3.3,3.3,0,0,0-.68-.06,2.19,2.19,0,0,0-2.16,1.89,4.25,4.25,0,0,0-.07.84v5.34H33.61Z"/><path class="b" d="M40.56,41c0-1.24,0-2.27-.09-3.17h2.16l.1,1.83h.07a2.86,2.86,0,0,1,2.58-2,2.47,2.47,0,0,1,.57,0v2.38a3.3,3.3,0,0,0-.68-.06,2.19,2.19,0,0,0-2.16,1.89,5.18,5.18,0,0,0-.07.84v5.34H40.56Z"/><path class="b" d="M56.2,42.89c0,3.86-2.49,5.4-4.78,5.4-2.67,0-4.68-1.94-4.68-5.27s2.09-5.38,4.82-5.38S56.2,39.71,56.2,42.89ZM49.27,43c0,1.89.78,3.48,2.23,3.48s2.17-1.6,2.17-3.51c0-1.56-.58-3.46-2.17-3.46S49.27,41.33,49.27,43Z"/><path class="b" d="M58.2,41c0-1.24,0-2.27-.09-3.17h2.16l.1,1.83h.07a2.86,2.86,0,0,1,2.58-2,2.47,2.47,0,0,1,.57,0v2.38a3.3,3.3,0,0,0-.68-.06,2.19,2.19,0,0,0-2.16,1.89,5.18,5.18,0,0,0-.07.84v5.34H58.2Z"/><path class="b" d="M65,45.78a5.09,5.09,0,0,0,2.36.68c1,0,1.53-.46,1.53-1.15s-.38-1.05-1.54-1.55c-1.86-.75-2.61-1.8-2.6-3,0-1.79,1.43-3.16,3.65-3.16a5.34,5.34,0,0,1,2.49.58L70.4,40a4.06,4.06,0,0,0-1.93-.54c-.88,0-1.35.47-1.35,1.08s.42.93,1.62,1.45c1.71.71,2.52,1.67,2.53,3.11,0,1.93-1.45,3.19-3.92,3.19a5.83,5.83,0,0,1-2.84-.68Z"/></svg>